<svg xmlns="http://www.w3.org/2000/svg" version="1.1" xmlns:xlink="http://www.w3.org/1999/xlink" xmlns:svgjs="http://svgjs.dev/svgjs" width="128" height="128" viewBox="0 0 128 128"><g transform="matrix(0.8046875,0,0,0.8046875,12.41184074821259,12.814873242367177)"><svg viewBox="0 0 98 98" data-background-color="#0f1d29" preserveAspectRatio="xMidYMid meet" height="127" width="128" xmlns="http://www.w3.org/2000/svg" xmlns:xlink="http://www.w3.org/1999/xlink"><g id="tight-bounds" transform="matrix(1,0,0,1,0.08387967645792571,0.08387967645792571)"><svg viewBox="0 0 97.83224064708415 97.83224064708415" height="97.83224064708415" width="97.83224064708415"><rect width="97.83224064708415" height="97.83224064708415" fill="url(#50625fce-5dcc-4da3-9b6f-ac2f4fe1d565)" mask="url(#c06ef7f5-b733-435c-862e-8a3afef53586)" data-fill-palette-color="tertiary"></rect><g><svg></svg></g><g><svg viewBox="0 0 97.83224064708415 97.83224064708415" height="97.83224064708415" width="97.83224064708415"><g><path d="M0 48.916c0-27.016 21.9-48.916 48.916-48.916 27.016 0 48.916 21.9 48.916 48.916 0 27.016-21.9 48.916-48.916 48.916-27.016 0-48.916-21.9-48.916-48.916zM48.916 93.244c24.481 0 44.328-19.846 44.328-44.328 0-24.481-19.846-44.328-44.328-44.327-24.481 0-44.328 19.846-44.327 44.327 0 24.481 19.846 44.328 44.327 44.328z" data-fill-palette-color="tertiary" fill="url(#50625fce-5dcc-4da3-9b6f-ac2f4fe1d565)" stroke="transparent"></path><ellipse rx="46.95947551060039" ry="46.95947551060039" cx="48.916120323542074" cy="48.916120323542074" fill="url(#50625fce-5dcc-4da3-9b6f-ac2f4fe1d565)" stroke="transparent" stroke-width="0" fill-opacity="1" data-fill-palette-color="tertiary"></ellipse></g><g transform="matrix(1,0,0,1,24.229330183895293,23.47539391502934)"><svg viewBox="0 0 49.37358027929356 50.88145281702547" height="50.88145281702547" width="49.37358027929356"><g><svg viewBox="0 0 49.37358027929356 50.88145281702547" height="50.88145281702547" width="49.37358027929356"><g><svg viewBox="0 0 49.37358027929356 50.88145281702547" height="50.88145281702547" width="49.37358027929356"><g id="textblocktransform"><svg viewBox="0 0 49.37358027929356 50.88145281702547" height="50.88145281702547" width="49.37358027929356" id="textblock"><g><svg viewBox="0 0 49.37358027929356 50.88145281702547" height="50.88145281702547" width="49.37358027929356"><g><svg viewBox="0 0 49.37358027929356 50.88145281702547" height="50.88145281702547" width="49.37358027929356"><g><svg xmlns="http://www.w3.org/2000/svg" xmlns:xlink="http://www.w3.org/1999/xlink" version="1.1" x="0" y="0" viewBox="9.27561798026528 5.833007599999987 112.72438201973472 116.16699240000001" style="enable-background:new 0 0 128 128;" xml:space="preserve" height="50.88145281702547" width="49.37358027929356" class="icon-icon-0" data-fill-palette-color="quaternary" id="icon-0"><g fill="#ffffff" data-fill-palette-color="quaternary"><path d="M40.171 61.441c0.926 0.652 4.672 2.419 8.648 0.446C50.749 62.594 52.825 63 55 63c3.073 0 5.964-0.774 8.495-2.132 2.004 1.708 5.831 2.74 10.08 1.108 2.29-0.879 2.622 0.617 5.676 0.869 2.751 0.226 3.795-0.769 3.989-2.167 0.359-2.581-2.469-2.627-2.468-4.44 0-1.814-0.432-6.498-3.476-8.433-1.869-1.189-2.781-2.521-5.028-9.636-2.003-6.341-5.098-8.134-7.318-8.535v-3.723c3.731-0.491 6.621-3.692 6.621-7.556 0-4.202-3.419-7.621-7.621-7.621-0.754 0-1.492 0.11-2.205 0.328-1.009-3.092-3.881-5.229-7.232-5.229-3.217 0-6.082 2.059-7.161 5.02-0.44-0.078-0.887-0.118-1.335-0.119-4.202 0-7.621 3.419-7.621 7.621 0 3.863 2.89 7.064 6.621 7.556v3.013c0 0.021 0.01 0.038 0.012 0.058-4.21 1.61-8.771 4.564-10.098 9.938 0 0-0.572 3.616 0.377 6.734 0 0 1.26 3.527-3.197 6.865-3.42 2.561-1.811 6.382-0.477 8.061C33.547 62.99 37.483 62.547 40.171 61.441zM62.24 59.25C60.063 60.36 57.607 61 55 61c-1.583 0-3.109-0.239-4.554-0.669C43.837 58.363 39 52.24 39 45c0-0.058 0.008-0.113 0.009-0.171 5.359-0.194 9.549-1.159 12.832-2.513 5.86-2.416 8.817-6.068 10.28-8.814 0.464-0.871 0.781-1.65 0.991-2.269C67.824 34.021 71 39.14 71 45 71 51.216 67.43 56.602 62.24 59.25zM46.017 23.977c-3.1 0-5.621-2.521-5.621-5.622s2.521-5.621 5.621-5.621c0.583 0 1.162 0.091 1.721 0.271 0.27 0.087 0.562 0.056 0.806-0.086s0.417-0.38 0.477-0.655c0.554-2.567 2.863-4.431 5.492-4.431 2.777 0 5.108 1.992 5.544 4.736 0.05 0.313 0.246 0.585 0.526 0.732 0.282 0.146 0.616 0.149 0.902 0.01 0.78-0.382 1.609-0.576 2.465-0.577 3.1 0 5.621 2.521 5.621 5.621s-2.521 5.621-5.621 5.622c-0.552 0-1 0.447-1 1v3.892C62.32 28.558 61.67 28.283 61 28.046V24c0-0.553-0.448-1-1-1s-1 0.447-1 1v3.461c-0.972-0.221-1.975-0.354-3-0.41V23c0-0.553-0.448-1-1-1s-1 0.447-1 1v4.051c-0.328 0.018-0.658 0.028-0.981 0.063l0-0.003c0 0-0.782 0.057-2.019 0.265V24c0-0.553-0.448-1-1-1s-1 0.447-1 1v3.778c-0.621 0.144-1.287 0.319-1.983 0.528v-3.329C47.017 24.424 46.569 23.977 46.017 23.977z" fill="#ffffff" data-fill-palette-color="quaternary"></path><path d="M60 84c0.842 0 1.559-0.522 1.854-1.258C61.946 82.512 62 82.263 62 82c0-1.105-0.895-2-2-2s-2 0.895-2 2c0 0.337 0.091 0.651 0.239 0.929C58.575 83.563 59.233 84 60 84z" fill="#ffffff" data-fill-palette-color="quaternary"></path><circle cx="60" cy="90" r="2.0" fill="#ffffff" data-fill-palette-color="quaternary"></circle><circle cx="60" cy="98" r="2.0" fill="#ffffff" data-fill-palette-color="quaternary"></circle><circle cx="60" cy="106" r="2.0" fill="#ffffff" data-fill-palette-color="quaternary"></circle><path d="M53 84c0.691 0 1.301-0.351 1.66-0.885C54.875 82.797 55 82.413 55 82c0-1.105-0.895-2-2-2s-2 0.895-2 2c0 0.49 0.183 0.933 0.476 1.281C51.843 83.717 52.386 84 53 84z" fill="#ffffff" data-fill-palette-color="quaternary"></path><circle cx="53" cy="90" r="2.0" fill="#ffffff" data-fill-palette-color="quaternary"></circle><circle cx="53" cy="98" r="2.0" fill="#ffffff" data-fill-palette-color="quaternary"></circle><circle cx="53" cy="106" r="2.0" fill="#ffffff" data-fill-palette-color="quaternary"></circle><path d="M119.977 29h-17.954C100.906 29 100 29.906 100 31.023V40c0 5.391 3.881 9.868 9 10.81v4.371h-1.285l-0.812-2.111c-0.427-1.108-1.511-1.854-2.699-1.853-1.56 0-2.829 1.221-2.889 2.778l-0.345 8.831c-0.021 0.507-0.169 1.003-0.43 1.436l-0.992 1.639c-0.002 0.004-0.002 0.009-0.005 0.013-0.003 0.005-0.008 0.008-0.01 0.013l-8.745 15.466c-0.165 0.291-0.449 0.475-0.782 0.503-0.334 0.03-0.645-0.102-0.859-0.357l-7.644-9.224c-3.731-4.502-9.186-7.117-15.015-7.23l-0.003-0.021H46.148l-0.002 0.028c-0.031-0.003-0.058-0.018-0.091-0.018h-4.07c-3.21 0-6.426 0.751-9.3 2.172l-17.281 8.536C10.942 77.986 8.511 82.933 9.491 87.813l4.038 20.088c0 0 0 0.001 0 0.001 0 0 0 0.001 0 0.001L13.956 110H12c-1.105 0-2 0.895-2 2 0 1.105 0.895 2 2 2h2.77l0.193 0.951c0.481 2.363 2.553 4.048 4.991 3.992 0.906-0.039 1.739 0.358 2.322 1.034 0.545 0.631 1.337 0.977 2.144 0.976 0.325 0 0.652-0.056 0.966-0.172 2.083-0.765 3.372-2.84 3.135-5.046L28.336 114h8.1l0.94 5.505C37.623 120.951 38.867 122 40.333 122h8.622 27.086 11.226c0.707 0 1.362-0.374 1.722-0.983l4.725-8C94.502 111.684 93.541 110 91.992 110H78.383l0.335-2.758c0.081-0.129 0.143-0.271 0.158-0.432l0.311-3.427 0.436-3.592c0.017-0.066 0.038-0.132 0.057-0.198 0.07-0.255 0.215-0.479 0.449-0.613 0.277-0.157 0.603-0.175 0.898-0.044l5.338 2.354c5.33 2.352 11.583 0.13 14.235-5.059L109 79.793V92c0 1.105 0.895 2 2 2s2-0.895 2-2V72.032c0.292-0.068 0.579-0.168 0.847-0.325 0.822-0.481 1.355-1.301 1.464-2.247l0.997-8.711c0.162-1.414-0.289-2.835-1.237-3.897-0.567-0.635-1.283-1.104-2.071-1.382v-4.66c5.119-0.942 9-5.418 9-10.81v-8.977C122 29.906 121.094 29 119.977 29zM106 42c0 0.553-0.448 1-1 1s-1-0.447-1-1v-8c0-0.553 0.448-1 1-1s1 0.447 1 1V42zM110 34c0-0.553 0.448-1 1-1s1 0.447 1 1v11c0 0.089-0.029 0.168-0.05 0.25C111.836 45.678 111.464 46 111 46s-0.836-0.322-0.95-0.75C110.029 45.168 110 45.089 110 45V34zM114.32 60.522l-0.996 8.711c-0.027 0.238-0.155 0.434-0.324 0.593-0.055 0.052-0.096 0.116-0.164 0.155-0.206 0.122-0.44 0.137-0.67 0.098-0.075-0.013-0.151-0.007-0.223-0.038-0.196-0.082-0.379-0.185-0.567-0.28-0.905-0.461-1.705-1.072-2.376-1.802-1.055-1.146-1.798-2.569-2.096-4.152l-1.024-5.441c-0.076-0.402 0.101-0.688 0.214-0.824 0.112-0.135 0.361-0.361 0.769-0.361H109h2.34c0.598 0 1.172 0.188 1.66 0.514 0.209 0.14 0.408 0.297 0.578 0.489C114.147 58.821 114.417 59.674 114.32 60.522zM87.172 99.46l-5.338-2.355c-0.267-0.118-0.545-0.182-0.824-0.218 1.622-2.801 3.342-7.98-0.122-14.673-0.253-0.488-0.857-0.681-1.348-0.428-0.491 0.254-0.683 0.856-0.429 1.348 0.277 0.536 0.504 1.055 0.71 1.567 2.218 5.527 0.473 9.655-0.864 11.713-0.074 0.113-0.131 0.234-0.199 0.349-0.372 0.624-0.677 1.275-0.9 1.944-0.069 0.168-0.114 0.346-0.152 0.528-0.018 0.084-0.05 0.162-0.06 0.249l-0.002 0.015c-0.103 0.415-0.189 0.832-0.227 1.25l-0.221 2.442L76.369 110h-9.491c0.003-0.03 0.018-0.056 0.017-0.087V82.479 80.094c0-2.612-2.02-4.738-4.576-4.957 2.38-1.645 4.086-4.194 4.605-7.154 0.051-0.292 0.097-0.585 0.124-0.884 5.021 0.264 9.685 2.597 12.915 6.492l7.644 9.223c0.629 0.76 1.588 1.162 2.576 1.075 0.983-0.087 1.86-0.652 2.346-1.512l8.313-14.703L109 70.959v4.438L98.819 95.321C96.649 99.567 91.536 101.386 87.172 99.46zM40.333 120c-0.489 0-0.904-0.35-0.985-0.831L38.465 114h4.419l3.719 6H40.333zM26.533 115.948c0.138 1.292-0.617 2.508-1.837 2.956-0.32 0.115-0.684 0.022-0.906-0.235-0.952-1.101-2.322-1.727-3.773-1.727-0.054 0-0.11 0.002-0.167 0.002-1.417 0-2.643-0.997-2.927-2.391L16.811 114l-0.814-4-0.326-1.602 10.21-3.082 3.448 3.401h-2.458c-0.284 0-0.554 0.12-0.744 0.332-0.19 0.211-0.281 0.492-0.25 0.774L25.896 110l0.428 4L26.533 115.948zM34.708 91.992c-0.158-0.837-0.692-1.563-1.464-1.991-0.46-0.256-0.97-0.385-1.48-0.385-0.37 0-0.742 0.067-1.096 0.205l-4.472 1.738c-0.093 0.036-0.178 0.085-0.266 0.129l-0.83-8.116c-0.056-0.549-0.553-0.94-1.096-0.893-0.55 0.057-0.949 0.548-0.893 1.096l1.729 16.905 0.251 2.786-9.818 2.963-3.821-19.011c-0.802-3.992 1.187-8.039 4.838-9.843l17.28-8.536c2.601-1.285 5.511-1.965 8.415-1.965h3.115c0.081 0.898 0.281 1.76 0.566 2.583 1.492 4.32 5.589 7.436 10.41 7.437h5.819c1.654 0 3 1.346 3 3v2.489 27.33c0 0.031 0.015 0.057 0.018 0.087H46h-2.003-6.215L34.708 91.992zM102.251 65.296c0.436-0.721 0.684-1.548 0.717-2.391l0.345-8.832c0.019-0.48 0.41-0.856 0.891-0.856 0.366 0 0.701 0.229 0.833 0.572l0.633 1.647c-0.426 0.185-0.811 0.462-1.116 0.83-0.572 0.689-0.805 1.59-0.639 2.469l1.023 5.441c0.24 1.276 0.711 2.472 1.369 3.543l-4.44-1.789L102.251 65.296zM31.237 110c0.093-0.123 0.179-0.254 0.24-0.402 0.279-0.68 0.121-1.452-0.403-1.969l-3.95-3.896-0.838-9.288c-0.04-0.441 0.221-0.861 0.634-1.021l4.473-1.738c0.285-0.11 0.605-0.088 0.88 0.064 0.25 0.139 0.422 0.362 0.466 0.596L35.753 110H31.237zM118 42c0 0.553-0.448 1-1 1s-1-0.447-1-1v-8c0-0.553 0.448-1 1-1s1 0.447 1 1V42z" fill="#ffffff" data-fill-palette-color="quaternary"></path></g></svg></g></svg></g></svg></g></svg></g></svg></g><g></g></svg></g></svg></g></svg></g><defs></defs><mask id="c06ef7f5-b733-435c-862e-8a3afef53586"><g id="SvgjsG2454"><svg viewBox="0 0 97.83224064708415 97.83224064708415" height="97.83224064708415" width="97.83224064708415"><g><svg></svg></g><g><svg viewBox="0 0 97.83224064708415 97.83224064708415" height="97.83224064708415" width="97.83224064708415"><g><path d="M0 48.916c0-27.016 21.9-48.916 48.916-48.916 27.016 0 48.916 21.9 48.916 48.916 0 27.016-21.9 48.916-48.916 48.916-27.016 0-48.916-21.9-48.916-48.916zM48.916 93.244c24.481 0 44.328-19.846 44.328-44.328 0-24.481-19.846-44.328-44.328-44.327-24.481 0-44.328 19.846-44.327 44.327 0 24.481 19.846 44.328 44.327 44.328z" fill="white" stroke="transparent"></path><ellipse rx="46.95947551060039" ry="46.95947551060039" cx="48.916120323542074" cy="48.916120323542074" fill="white" stroke="transparent" stroke-width="0" fill-opacity="1"></ellipse></g><g transform="matrix(1,0,0,1,24.229330183895293,23.47539391502934)"><svg viewBox="0 0 49.37358027929356 50.88145281702547" height="50.88145281702547" width="49.37358027929356"><g><svg viewBox="0 0 49.37358027929356 50.88145281702547" height="50.88145281702547" width="49.37358027929356"><g><svg viewBox="0 0 49.37358027929356 50.88145281702547" height="50.88145281702547" width="49.37358027929356"><g id="SvgjsG2453"><svg viewBox="0 0 49.37358027929356 50.88145281702547" height="50.88145281702547" width="49.37358027929356" id="SvgjsSvg2452"><g><svg viewBox="0 0 49.37358027929356 50.88145281702547" height="50.88145281702547" width="49.37358027929356"><g><svg viewBox="0 0 49.37358027929356 50.88145281702547" height="50.88145281702547" width="49.37358027929356"><g><svg xmlns="http://www.w3.org/2000/svg" xmlns:xlink="http://www.w3.org/1999/xlink" version="1.1" x="0" y="0" viewBox="9.27561798026528 5.833007599999987 112.72438201973472 116.16699240000001" style="enable-background:new 0 0 128 128;" xml:space="preserve" height="50.88145281702547" width="49.37358027929356" class="icon-icon-0" data-fill-palette-color="quaternary" id="SvgjsSvg2451"><g fill="black"><path d="M40.171 61.441c0.926 0.652 4.672 2.419 8.648 0.446C50.749 62.594 52.825 63 55 63c3.073 0 5.964-0.774 8.495-2.132 2.004 1.708 5.831 2.74 10.08 1.108 2.29-0.879 2.622 0.617 5.676 0.869 2.751 0.226 3.795-0.769 3.989-2.167 0.359-2.581-2.469-2.627-2.468-4.44 0-1.814-0.432-6.498-3.476-8.433-1.869-1.189-2.781-2.521-5.028-9.636-2.003-6.341-5.098-8.134-7.318-8.535v-3.723c3.731-0.491 6.621-3.692 6.621-7.556 0-4.202-3.419-7.621-7.621-7.621-0.754 0-1.492 0.11-2.205 0.328-1.009-3.092-3.881-5.229-7.232-5.229-3.217 0-6.082 2.059-7.161 5.02-0.44-0.078-0.887-0.118-1.335-0.119-4.202 0-7.621 3.419-7.621 7.621 0 3.863 2.89 7.064 6.621 7.556v3.013c0 0.021 0.01 0.038 0.012 0.058-4.21 1.61-8.771 4.564-10.098 9.938 0 0-0.572 3.616 0.377 6.734 0 0 1.26 3.527-3.197 6.865-3.42 2.561-1.811 6.382-0.477 8.061C33.547 62.99 37.483 62.547 40.171 61.441zM62.24 59.25C60.063 60.36 57.607 61 55 61c-1.583 0-3.109-0.239-4.554-0.669C43.837 58.363 39 52.24 39 45c0-0.058 0.008-0.113 0.009-0.171 5.359-0.194 9.549-1.159 12.832-2.513 5.86-2.416 8.817-6.068 10.28-8.814 0.464-0.871 0.781-1.65 0.991-2.269C67.824 34.021 71 39.14 71 45 71 51.216 67.43 56.602 62.24 59.25zM46.017 23.977c-3.1 0-5.621-2.521-5.621-5.622s2.521-5.621 5.621-5.621c0.583 0 1.162 0.091 1.721 0.271 0.27 0.087 0.562 0.056 0.806-0.086s0.417-0.38 0.477-0.655c0.554-2.567 2.863-4.431 5.492-4.431 2.777 0 5.108 1.992 5.544 4.736 0.05 0.313 0.246 0.585 0.526 0.732 0.282 0.146 0.616 0.149 0.902 0.01 0.78-0.382 1.609-0.576 2.465-0.577 3.1 0 5.621 2.521 5.621 5.621s-2.521 5.621-5.621 5.622c-0.552 0-1 0.447-1 1v3.892C62.32 28.558 61.67 28.283 61 28.046V24c0-0.553-0.448-1-1-1s-1 0.447-1 1v3.461c-0.972-0.221-1.975-0.354-3-0.41V23c0-0.553-0.448-1-1-1s-1 0.447-1 1v4.051c-0.328 0.018-0.658 0.028-0.981 0.063l0-0.003c0 0-0.782 0.057-2.019 0.265V24c0-0.553-0.448-1-1-1s-1 0.447-1 1v3.778c-0.621 0.144-1.287 0.319-1.983 0.528v-3.329C47.017 24.424 46.569 23.977 46.017 23.977z" fill="black"></path><path d="M60 84c0.842 0 1.559-0.522 1.854-1.258C61.946 82.512 62 82.263 62 82c0-1.105-0.895-2-2-2s-2 0.895-2 2c0 0.337 0.091 0.651 0.239 0.929C58.575 83.563 59.233 84 60 84z" fill="black"></path><circle cx="60" cy="90" r="2.0" fill="black"></circle><circle cx="60" cy="98" r="2.0" fill="black"></circle><circle cx="60" cy="106" r="2.0" fill="black"></circle><path d="M53 84c0.691 0 1.301-0.351 1.66-0.885C54.875 82.797 55 82.413 55 82c0-1.105-0.895-2-2-2s-2 0.895-2 2c0 0.49 0.183 0.933 0.476 1.281C51.843 83.717 52.386 84 53 84z" fill="black"></path><circle cx="53" cy="90" r="2.0" fill="black"></circle><circle cx="53" cy="98" r="2.0" fill="black"></circle><circle cx="53" cy="106" r="2.0" fill="black"></circle><path d="M119.977 29h-17.954C100.906 29 100 29.906 100 31.023V40c0 5.391 3.881 9.868 9 10.81v4.371h-1.285l-0.812-2.111c-0.427-1.108-1.511-1.854-2.699-1.853-1.56 0-2.829 1.221-2.889 2.778l-0.345 8.831c-0.021 0.507-0.169 1.003-0.43 1.436l-0.992 1.639c-0.002 0.004-0.002 0.009-0.005 0.013-0.003 0.005-0.008 0.008-0.01 0.013l-8.745 15.466c-0.165 0.291-0.449 0.475-0.782 0.503-0.334 0.03-0.645-0.102-0.859-0.357l-7.644-9.224c-3.731-4.502-9.186-7.117-15.015-7.23l-0.003-0.021H46.148l-0.002 0.028c-0.031-0.003-0.058-0.018-0.091-0.018h-4.07c-3.21 0-6.426 0.751-9.3 2.172l-17.281 8.536C10.942 77.986 8.511 82.933 9.491 87.813l4.038 20.088c0 0 0 0.001 0 0.001 0 0 0 0.001 0 0.001L13.956 110H12c-1.105 0-2 0.895-2 2 0 1.105 0.895 2 2 2h2.77l0.193 0.951c0.481 2.363 2.553 4.048 4.991 3.992 0.906-0.039 1.739 0.358 2.322 1.034 0.545 0.631 1.337 0.977 2.144 0.976 0.325 0 0.652-0.056 0.966-0.172 2.083-0.765 3.372-2.84 3.135-5.046L28.336 114h8.1l0.94 5.505C37.623 120.951 38.867 122 40.333 122h8.622 27.086 11.226c0.707 0 1.362-0.374 1.722-0.983l4.725-8C94.502 111.684 93.541 110 91.992 110H78.383l0.335-2.758c0.081-0.129 0.143-0.271 0.158-0.432l0.311-3.427 0.436-3.592c0.017-0.066 0.038-0.132 0.057-0.198 0.07-0.255 0.215-0.479 0.449-0.613 0.277-0.157 0.603-0.175 0.898-0.044l5.338 2.354c5.33 2.352 11.583 0.13 14.235-5.059L109 79.793V92c0 1.105 0.895 2 2 2s2-0.895 2-2V72.032c0.292-0.068 0.579-0.168 0.847-0.325 0.822-0.481 1.355-1.301 1.464-2.247l0.997-8.711c0.162-1.414-0.289-2.835-1.237-3.897-0.567-0.635-1.283-1.104-2.071-1.382v-4.66c5.119-0.942 9-5.418 9-10.81v-8.977C122 29.906 121.094 29 119.977 29zM106 42c0 0.553-0.448 1-1 1s-1-0.447-1-1v-8c0-0.553 0.448-1 1-1s1 0.447 1 1V42zM110 34c0-0.553 0.448-1 1-1s1 0.447 1 1v11c0 0.089-0.029 0.168-0.05 0.25C111.836 45.678 111.464 46 111 46s-0.836-0.322-0.95-0.75C110.029 45.168 110 45.089 110 45V34zM114.32 60.522l-0.996 8.711c-0.027 0.238-0.155 0.434-0.324 0.593-0.055 0.052-0.096 0.116-0.164 0.155-0.206 0.122-0.44 0.137-0.67 0.098-0.075-0.013-0.151-0.007-0.223-0.038-0.196-0.082-0.379-0.185-0.567-0.28-0.905-0.461-1.705-1.072-2.376-1.802-1.055-1.146-1.798-2.569-2.096-4.152l-1.024-5.441c-0.076-0.402 0.101-0.688 0.214-0.824 0.112-0.135 0.361-0.361 0.769-0.361H109h2.34c0.598 0 1.172 0.188 1.66 0.514 0.209 0.14 0.408 0.297 0.578 0.489C114.147 58.821 114.417 59.674 114.32 60.522zM87.172 99.46l-5.338-2.355c-0.267-0.118-0.545-0.182-0.824-0.218 1.622-2.801 3.342-7.98-0.122-14.673-0.253-0.488-0.857-0.681-1.348-0.428-0.491 0.254-0.683 0.856-0.429 1.348 0.277 0.536 0.504 1.055 0.71 1.567 2.218 5.527 0.473 9.655-0.864 11.713-0.074 0.113-0.131 0.234-0.199 0.349-0.372 0.624-0.677 1.275-0.9 1.944-0.069 0.168-0.114 0.346-0.152 0.528-0.018 0.084-0.05 0.162-0.06 0.249l-0.002 0.015c-0.103 0.415-0.189 0.832-0.227 1.25l-0.221 2.442L76.369 110h-9.491c0.003-0.03 0.018-0.056 0.017-0.087V82.479 80.094c0-2.612-2.02-4.738-4.576-4.957 2.38-1.645 4.086-4.194 4.605-7.154 0.051-0.292 0.097-0.585 0.124-0.884 5.021 0.264 9.685 2.597 12.915 6.492l7.644 9.223c0.629 0.76 1.588 1.162 2.576 1.075 0.983-0.087 1.86-0.652 2.346-1.512l8.313-14.703L109 70.959v4.438L98.819 95.321C96.649 99.567 91.536 101.386 87.172 99.46zM40.333 120c-0.489 0-0.904-0.35-0.985-0.831L38.465 114h4.419l3.719 6H40.333zM26.533 115.948c0.138 1.292-0.617 2.508-1.837 2.956-0.32 0.115-0.684 0.022-0.906-0.235-0.952-1.101-2.322-1.727-3.773-1.727-0.054 0-0.11 0.002-0.167 0.002-1.417 0-2.643-0.997-2.927-2.391L16.811 114l-0.814-4-0.326-1.602 10.21-3.082 3.448 3.401h-2.458c-0.284 0-0.554 0.12-0.744 0.332-0.19 0.211-0.281 0.492-0.25 0.774L25.896 110l0.428 4L26.533 115.948zM34.708 91.992c-0.158-0.837-0.692-1.563-1.464-1.991-0.46-0.256-0.97-0.385-1.48-0.385-0.37 0-0.742 0.067-1.096 0.205l-4.472 1.738c-0.093 0.036-0.178 0.085-0.266 0.129l-0.83-8.116c-0.056-0.549-0.553-0.94-1.096-0.893-0.55 0.057-0.949 0.548-0.893 1.096l1.729 16.905 0.251 2.786-9.818 2.963-3.821-19.011c-0.802-3.992 1.187-8.039 4.838-9.843l17.28-8.536c2.601-1.285 5.511-1.965 8.415-1.965h3.115c0.081 0.898 0.281 1.76 0.566 2.583 1.492 4.32 5.589 7.436 10.41 7.437h5.819c1.654 0 3 1.346 3 3v2.489 27.33c0 0.031 0.015 0.057 0.018 0.087H46h-2.003-6.215L34.708 91.992zM102.251 65.296c0.436-0.721 0.684-1.548 0.717-2.391l0.345-8.832c0.019-0.48 0.41-0.856 0.891-0.856 0.366 0 0.701 0.229 0.833 0.572l0.633 1.647c-0.426 0.185-0.811 0.462-1.116 0.83-0.572 0.689-0.805 1.59-0.639 2.469l1.023 5.441c0.24 1.276 0.711 2.472 1.369 3.543l-4.44-1.789L102.251 65.296zM31.237 110c0.093-0.123 0.179-0.254 0.24-0.402 0.279-0.68 0.121-1.452-0.403-1.969l-3.95-3.896-0.838-9.288c-0.04-0.441 0.221-0.861 0.634-1.021l4.473-1.738c0.285-0.11 0.605-0.088 0.88 0.064 0.25 0.139 0.422 0.362 0.466 0.596L35.753 110H31.237zM118 42c0 0.553-0.448 1-1 1s-1-0.447-1-1v-8c0-0.553 0.448-1 1-1s1 0.447 1 1V42z" fill="black"></path></g></svg></g></svg></g></svg></g></svg></g></svg></g><g></g></svg></g></svg></g></svg></g><defs><mask></mask></defs></svg><rect width="97.83224064708415" height="97.83224064708415" fill="black" stroke="none" visibility="hidden"></rect></g></mask><linearGradient x1="0" x2="1" y1="0.5" y2="0.5" id="50625fce-5dcc-4da3-9b6f-ac2f4fe1d565"><stop stop-color="#f00b51" offset="0"></stop><stop stop-color="#730062" offset="1"></stop></linearGradient></svg><rect width="97.83224064708415" height="97.83224064708415" fill="none" stroke="none" visibility="hidden"></rect></g></svg></g></svg>